<mxfile host="app.diagrams.net" modified="2021-11-13T10:57:18.927Z" agent="5.0 (Macintosh; Intel Mac OS X 10_15_7) AppleWebKit/537.36 (KHTML, like Gecko) Chrome/86.0.4240.193 Safari/537.36" etag="uxMi-ZDWxaWgHP3ByIzA" version="15.7.3" type="github">
  <diagram id="iFS0JgWhsD2GHOx9t8gv" name="Page-1">
    <mxGraphModel dx="946" dy="536" grid="1" gridSize="10" guides="1" tooltips="1" connect="1" arrows="1" fold="1" page="1" pageScale="1" pageWidth="827" pageHeight="1169" math="0" shadow="0">
      <root>
        <mxCell id="0" />
        <mxCell id="1" parent="0" />
        <mxCell id="DzktOX3Q1Vdfpv2es8NG-3" value="" style="rounded=1;whiteSpace=wrap;html=1;" parent="1" vertex="1">
          <mxGeometry x="400" y="130" width="210" height="350" as="geometry" />
        </mxCell>
        <mxCell id="DzktOX3Q1Vdfpv2es8NG-6" value="DefaultMQPushConsumerImpl" style="text;html=1;strokeColor=none;fillColor=none;align=center;verticalAlign=middle;whiteSpace=wrap;rounded=0;" parent="1" vertex="1">
          <mxGeometry x="485" y="160" width="40" height="20" as="geometry" />
        </mxCell>
        <mxCell id="DzktOX3Q1Vdfpv2es8NG-7" value="&lt;pre&gt;RebalanceImpl&lt;/pre&gt;&lt;pre&gt;重平衡&lt;/pre&gt;" style="rounded=1;whiteSpace=wrap;html=1;" parent="1" vertex="1">
          <mxGeometry x="440" y="200" width="120" height="60" as="geometry" />
        </mxCell>
        <mxCell id="DzktOX3Q1Vdfpv2es8NG-8" value="&lt;pre&gt;&lt;pre&gt;PullAPIWrapper&lt;/pre&gt;&lt;pre&gt;拉取消息&lt;/pre&gt;&lt;/pre&gt;" style="rounded=1;whiteSpace=wrap;html=1;" parent="1" vertex="1">
          <mxGeometry x="440" y="280" width="120" height="60" as="geometry" />
        </mxCell>
        <mxCell id="DzktOX3Q1Vdfpv2es8NG-9" value="&lt;pre&gt;&lt;pre&gt;&lt;pre&gt;OffsetStore&lt;/pre&gt;&lt;pre&gt;管理消费进度&lt;/pre&gt;&lt;/pre&gt;&lt;/pre&gt;" style="rounded=1;whiteSpace=wrap;html=1;" parent="1" vertex="1">
          <mxGeometry x="445" y="370" width="120" height="60" as="geometry" />
        </mxCell>
      </root>
    </mxGraphModel>
  </diagram>
</mxfile>
